<svg xmlns="http://www.w3.org/2000/svg" viewBox="0 0 640 360" role="img" aria-label="Kia Sorento">
  <defs>
    <linearGradient id="bg" x1="0%" y1="0%" x2="100%" y2="100%">
      <stop offset="0%" stop-color="#ffedd5"/>
      <stop offset="100%" stop-color="#e0e7ff"/>
    </linearGradient>
  </defs>
  <rect width="640" height="360" fill="url(#bg)"/>
  <ellipse cx="320" cy="290" rx="200" ry="16" fill="rgba(99,102,241,0.12)"/>
  <path d="M140 220c24-56 96-84 180-84s156 28 180 84l-10 32H150l-10-32z" fill="#fff" stroke="#cbd5e1" stroke-width="2"/>
  <path d="M220 136c36-18 92-18 128 0 26 13 44 38 48 68H172c4-30 22-55 48-68z" fill="#94a3b8" fill-opacity="0.55"/>
  <circle cx="200" cy="252" r="34" fill="#1e293b"/>
  <circle cx="200" cy="252" r="18" fill="#475569"/>
  <circle cx="440" cy="252" r="34" fill="#1e293b"/>
  <circle cx="440" cy="252" r="18" fill="#475569"/>
  <text x="320" y="330" text-anchor="middle" font-family="system-ui,sans-serif" font-size="15" font-weight="600" fill="#64748b">Kia Sorento</text>
</svg>
